<?xml version="1.0" encoding="iso-8859-1"?>
<!-- Uploaded to: SVG Repo, www.svgrepo.com, Generator: SVG Repo Mixer Tools -->
<!DOCTYPE svg PUBLIC "-//W3C//DTD SVG 1.1//EN" "http://www.w3.org/Graphics/SVG/1.1/DTD/svg11.dtd">
<svg height="800px" width="800px" version="1.1" id="Capa_1" xmlns="http://www.w3.org/2000/svg" xmlns:xlink="http://www.w3.org/1999/xlink" 
	 viewBox="0 0 291.632 291.632" xml:space="preserve">
<path style="fill:#222220;" d="M271.636,207.578c-0.792-1.913-2.341-3.413-4.278-4.145c-19.791-7.478-33.017-25.413-34.517-46.81
	c-1.468-20.937,8.773-39.527,27.396-49.731c1.945-1.065,3.318-2.937,3.751-5.111c0.433-2.175-0.118-4.43-1.506-6.159
	c-15.505-19.324-37.563-30.861-59.003-30.861c-10.157,0-18.085,1.762-24.929,3.95c4.422-3.369,8.465-7.292,11.891-11.689
	c12.009-15.416,17.465-33.868,14.971-50.627c-0.576-3.868-4.018-6.632-7.934-6.378c-16.866,1.161-35.984,11.396-47.573,25.467
	c-12.04,14.621-17.814,32.331-15.726,47.829c-1.63-0.552-3.288-1.139-5.004-1.751c-8.917-3.179-19.023-6.781-31.64-6.781
	c-24.358,0-49.034,14.69-64.397,38.338c-10.983,16.907-15.602,40.81-13.005,67.304c2.7,27.55,12.711,55.175,28.953,79.89
	c12.565,19.12,30.042,41.097,53.859,41.319l0.447,0.002c9.83-0.001,16.438-2.945,22.829-5.793
	c6.747-3.006,13.119-5.846,24.677-5.908l0.378-0.001c11.31,0,17.473,2.824,23.998,5.814c6.27,2.873,12.753,5.844,22.567,5.844
	l0.448-0.002c23.198-0.22,40.675-22.098,54.709-43.468c8.561-13.019,11.885-19.824,18.547-34.585
	C272.395,211.647,272.428,209.491,271.636,207.578z M161.483,35.018c7.149-8.681,18.688-15.85,29.506-18.739
	c-0.558,14.646-8.541,26.593-12.383,31.523c-7.438,9.549-18.877,16.434-29.824,18.279C148.962,58.872,151.254,47.44,161.483,35.018z
	 M240.46,239.881c-11.17,17.009-26.075,36.552-42.314,36.705l-0.308,0.002c-6.541,0-10.856-1.978-16.319-4.48
	c-6.979-3.198-15.664-7.178-30.247-7.178l-0.461,0.001c-14.704,0.08-23.573,4.032-30.699,7.207
	c-5.634,2.511-10.084,4.493-16.725,4.494l-0.308-0.002c-8.785-0.082-21.437-4.084-41.462-34.558
	C32.703,198.07,25.866,141.845,45.716,111.29c12.626-19.436,32.482-31.51,51.818-31.51c10.023,0,18.077,2.871,26.604,5.911
	c8.189,2.919,16.657,5.938,26.464,5.938c9.248,0,16.786-2.852,24.076-5.61c8.132-3.076,16.541-6.258,28.802-6.258
	c14.552,0,29.657,6.969,41.669,18.962c-18.867,13.7-28.94,35.139-27.271,58.95c1.725,24.591,15.621,45.615,36.868,56.546
	C250.231,223.96,247.056,229.851,240.46,239.881z"/>
</svg>